<svg width="42" height="35" viewBox="0 0 42 35" fill="none" xmlns="http://www.w3.org/2000/svg">
<path d="M5.87651 11.7424C5.87651 12.6249 6.67226 13.347 7.64484 13.347C8.61742 13.347 9.41316 12.6249 9.41316 11.7424V8.53321H12.9498C13.9224 8.53321 14.7181 7.81115 14.7181 6.92862C14.7181 6.0461 13.9224 5.32403 12.9498 5.32403H9.41316V2.11485C9.41316 1.23232 8.61742 0.510254 7.64484 0.510254C6.67226 0.510254 5.87651 1.23232 5.87651 2.11485V5.32403H2.33986C1.36728 5.32403 0.571533 6.0461 0.571533 6.92862C0.571533 7.81115 1.36728 8.53321 2.33986 8.53321H5.87651V11.7424Z" fill="black"/>
<path d="M23.4559 26.1838C26.4432 26.1838 28.8649 24.1554 28.8649 21.6532C28.8649 19.151 26.4432 17.1226 23.4559 17.1226C20.4686 17.1226 18.0469 19.151 18.0469 21.6532C18.0469 24.1554 20.4686 26.1838 23.4559 26.1838Z" fill="black"/>
<path d="M31.7491 9.343L31.8946 9.48411H32.0973H37.7688C39.5165 9.48411 40.8471 10.7476 40.8471 12.1723V31.3016C40.8471 32.7262 39.5165 33.9898 37.7688 33.9898H9.14272C7.39499 33.9898 6.06445 32.7262 6.06445 31.3016V15.6587C6.46348 15.7855 6.89223 15.8605 7.35358 15.8605C9.54195 15.8605 11.4318 14.2547 11.4318 12.1723V11.0782H12.721C14.9093 11.0782 16.7992 9.47236 16.7992 7.39C16.7992 6.99835 16.7264 6.63412 16.6035 6.2959H27.2487C28.1292 6.2959 28.966 6.63352 29.5275 7.18787L29.5274 7.18788L29.5306 7.19096L31.7491 9.343ZM14.0101 21.7369C14.0101 26.4655 18.2974 30.2075 23.4558 30.2075C28.6141 30.2075 32.9014 26.4655 32.9014 21.7369C32.9014 17.0084 28.6141 13.2664 23.4558 13.2664C18.2974 13.2664 14.0101 17.0084 14.0101 21.7369Z" fill="black" stroke="black"/>
</svg>
