<svg width="28" height="26" viewBox="0 0 28 26" fill="none" xmlns="http://www.w3.org/2000/svg">
<path d="M24.0446 14.3514V21.1082C24.0446 21.8514 23.3788 22.4595 22.565 22.4595H4.80987C3.99609 22.4595 3.33028 21.8514 3.33028 21.1082V14.3514C3.33028 13.6082 2.66446 13.0001 1.85069 13.0001C1.03691 13.0001 0.371094 13.6082 0.371094 14.3514V22.4595C0.371094 23.946 1.70273 25.1622 3.33028 25.1622H24.0446C25.6721 25.1622 27.0038 23.946 27.0038 22.4595V14.3514C27.0038 13.6082 26.3379 13.0001 25.5242 13.0001C24.7104 13.0001 24.0446 13.6082 24.0446 14.3514ZM15.167 13.9055L17.9486 11.3649C18.5257 10.8379 19.4578 10.8379 20.0349 11.3649C20.6119 11.8919 20.6119 12.7433 20.0349 13.2703L14.7231 18.1217C14.1461 18.6487 13.214 18.6487 12.6369 18.1217L7.32518 13.2703C6.74814 12.7433 6.74814 11.8919 7.32518 11.3649C7.90222 10.8379 8.83436 10.8379 9.4114 11.3649L12.2078 13.9055V2.18924C12.2078 1.446 12.8736 0.837891 13.6874 0.837891C14.5012 0.837891 15.167 1.446 15.167 2.18924V13.9055Z" fill="white"/>
</svg>
