<svg width="74" height="74" viewBox="0 0 74 74" fill="none" xmlns="http://www.w3.org/2000/svg">
<path d="M47.7764 43.6528V34.1518C47.7764 28.3181 44.6995 23.4346 39.3338 22.1424V20.8503C39.3338 19.2731 38.058 18 36.5008 18C34.9436 18 33.7053 19.2731 33.7053 20.8503V22.1424C28.3208 23.4346 25.2627 28.2991 25.2627 34.1518V43.6528L22.8237 46.104C21.6417 47.3012 22.4672 49.3534 24.137 49.3534H48.8458C50.5156 49.3534 51.3598 47.3012 50.1779 46.104L47.7764 43.6528ZM36.5008 55.054C38.5645 55.054 40.2531 53.3438 40.2531 51.2536H32.7485C32.7485 53.3438 34.4183 55.054 36.5008 55.054ZM26.7073 22.2375C27.4953 21.5154 27.5141 20.2802 26.7636 19.5202C26.0507 18.7981 24.8875 18.7791 24.1558 19.4822C20.9476 22.4465 18.7337 26.4749 18.0208 30.9974C17.8519 32.1565 18.7337 33.2016 19.8969 33.2016C20.7975 33.2016 21.5854 32.5366 21.7355 31.6245C22.2984 27.9381 24.0995 24.6507 26.7073 22.2375V22.2375ZM48.9021 19.4822C48.1516 18.7791 46.9884 18.7981 46.2755 19.5202C45.525 20.2802 45.5626 21.4964 46.3318 22.2185C48.9208 24.6317 50.7407 27.9191 51.3035 31.6055C51.4349 32.5176 52.2229 33.1826 53.1422 33.1826C54.2866 33.1826 55.1872 32.1375 54.9996 30.9784C54.2866 26.4749 52.0915 22.4655 48.9021 19.4822V19.4822Z" fill="black"/>
<circle cx="37" cy="37" r="34.5" stroke="black" stroke-width="5"/>
</svg>
